<svg width="91" height="24" viewBox="0 0 91 24" fill="none" xmlns="http://www.w3.org/2000/svg">
<rect width="24" height="24" rx="8" fill="#FAFAFA"/>
<path d="M10.1024 19.4758H8.54925C8.47032 19.4755 8.39342 19.4507 8.32914 19.4049C8.26487 19.3591 8.21637 19.2945 8.19032 19.22C8.02097 18.7516 7.92752 18.2592 7.91348 17.7614C7.90962 17.5858 7.91536 17.4103 7.93067 17.2354C7.24613 17.0919 6.63045 16.7206 6.18416 16.1821C5.73788 15.6436 5.48736 14.9696 5.47351 14.2704C5.02226 13.9932 4.64978 13.6047 4.39177 13.1422C4.13375 12.6797 3.99886 12.1587 4.00001 11.6291C4.00116 11.0995 4.13832 10.5791 4.39833 10.1177C4.65835 9.65635 5.03252 9.26951 5.48497 8.99426C5.49722 8.4764 5.63939 7.96992 5.89841 7.52133C6.15743 7.07274 6.525 6.69641 6.96737 6.4269C7.40973 6.1574 7.91273 6.00335 8.43015 5.9789C8.94757 5.95445 9.46285 6.0604 9.92866 6.287L9.95061 6.2975C10.385 5.83165 10.951 5.31616 11.4637 5.15197C11.8722 5.01856 12.3041 4.97224 12.7316 5.01597C13.159 5.05971 13.5726 5.19254 13.9456 5.4059C14.4119 5.14933 14.9364 5.01742 15.4685 5.02295C16.0006 5.02848 16.5223 5.17125 16.9831 5.43745C17.4439 5.70364 17.8282 6.08426 18.0988 6.54247C18.3694 7.00068 18.5171 7.52098 18.5277 8.05302C18.9787 8.33036 19.3509 8.71886 19.6087 9.1813C19.8665 9.64374 20.0012 10.1646 20 10.6941C19.9987 11.2235 19.8616 11.7438 19.6016 12.205C19.3417 12.6662 18.9676 13.053 18.5153 13.3282C18.5041 13.8118 18.3797 14.286 18.152 14.7127C17.9242 15.1395 17.5996 15.5069 17.2041 15.7854C16.8086 16.0639 16.3533 16.2458 15.8748 16.3164C15.3962 16.387 14.9078 16.3444 14.4487 16.192C14.3253 16.1501 14.2045 16.101 14.0869 16.045C14.0325 16.0182 13.9819 15.9925 13.9342 15.9657C13.0164 16.3212 12.1927 16.883 11.5267 17.6077C11.0826 18.0969 10.7183 18.6529 10.447 19.2553C10.4164 19.321 10.3677 19.3766 10.3067 19.4156C10.2457 19.4547 10.1748 19.4755 10.1024 19.4758ZM8.82704 18.7121H9.86088C10.1515 18.1223 10.5233 17.5761 10.9654 17.0893C11.5841 16.4129 12.3273 15.8619 13.1543 15.4665L12.8965 15.3061L12.382 14.9787C12.0002 15.3061 11.5696 15.6755 11.2565 15.9447L11.0656 16.1118L11.0341 16.1395L11.0026 16.1662L10.9911 16.1758L10.9806 16.1853H10.9014L10.888 16.1958H10.8728H10.867L10.8537 16.2073C10.8517 16.2097 10.8494 16.212 10.847 16.2139C10.7305 16.3304 10.2828 16.6912 10.2189 16.7332L10.2064 16.7399C9.75528 17.0172 9.24063 17.1743 8.71153 17.1962C8.66847 17.6725 8.71477 18.1526 8.84804 18.6119L8.82704 18.7121ZM8.39079 16.5299C8.88023 16.5656 9.36848 16.4463 9.78642 16.1891H9.79119C9.87424 16.1252 10.195 15.8655 10.2685 15.792L10.2857 15.7729C10.2914 15.7729 10.3048 15.7538 11.5839 14.656L9.31675 15.2288C9.25961 15.2421 9.20016 15.2421 9.14302 15.2288L6.45389 14.656C6.44059 14.6535 6.42751 14.65 6.41475 14.6455L6.3737 14.6369V14.6293L6.26488 14.5902C6.35152 15.1019 6.60681 15.57 6.99013 15.9199C7.37345 16.2698 7.86279 16.4815 8.38029 16.5213L8.39079 16.5299ZM14.5957 15.4264C14.6295 15.4398 14.6638 15.4522 14.6988 15.4636C15.0589 15.5823 15.4424 15.6112 15.8162 15.548C16.19 15.4848 16.5427 15.3313 16.8437 15.1008C17.1447 14.8704 17.3849 14.5699 17.5435 14.2256C17.702 13.8812 17.7742 13.5034 17.7536 13.1248C17.7418 12.9251 17.7042 12.7278 17.6419 12.5378L16.8658 10.1512L15.6391 9.89063L15.9875 10.9636C15.9877 10.9668 15.9877 10.97 15.9875 10.9732L16.6128 12.8967C16.6249 12.935 16.631 12.9749 16.6309 13.0151C16.6317 13.1092 16.5978 13.2003 16.5355 13.2709L14.5957 15.4264ZM12.9872 14.4575L13.9084 15.0436L15.8176 12.9186L15.4549 11.7998L13.3547 14.1348L13.3366 14.1539L13.3299 14.1596L13.3127 14.1759L12.9872 14.4575ZM6.64004 13.9191L9.21747 14.467L11.3882 13.9162L10.3 13.6833L10.2542 13.6709L8.81654 13.3654L6.80328 12.9387C6.74041 12.9254 6.6819 12.8965 6.63318 12.8546C6.58445 12.8128 6.54708 12.7592 6.52453 12.6991L6.38611 12.3344V12.3182L5.63579 10.0214C5.63579 10.0157 5.63579 10.01 5.63102 10.0033L5.61288 9.94791C5.60429 9.91736 5.5957 9.88777 5.58806 9.85722C5.29638 10.1034 5.06973 10.4176 4.92809 10.7721C4.78646 11.1265 4.73418 11.5104 4.77587 11.8898C4.81755 12.2693 4.95193 12.6326 5.16714 12.9479C5.38236 13.2631 5.67181 13.5206 6.01 13.6976L6.64004 13.9191ZM10.7076 12.9902L12.8583 13.4475L12.9328 13.4637L13.6965 12.6113L12.6636 12.3907L10.6475 11.965C10.5815 11.9515 10.5203 11.9209 10.47 11.8761C10.4197 11.8313 10.3821 11.7741 10.3611 11.7101L9.34539 8.61814L9.22702 8.2363L8.14545 9.44292L9.19552 12.6657L10.6647 12.9778C10.6792 12.9811 10.6936 12.9852 10.7076 12.9902ZM7.16698 12.2342L8.32969 12.4824L7.35122 9.46965C7.33825 9.43155 7.33179 9.39153 7.33213 9.35128C7.33156 9.25748 7.36554 9.16675 7.42759 9.0964L9.1096 7.23015L9.41221 6.89413C9.05128 6.75558 8.66153 6.70906 8.27812 6.75875C7.89472 6.80844 7.52971 6.95279 7.21602 7.17878C6.90233 7.40476 6.64982 7.70528 6.48127 8.05322C6.31273 8.40116 6.23344 8.78558 6.25056 9.17182L6.36989 9.80567L7.10684 12.0738L7.16698 12.2342ZM18.3893 12.3669C18.3989 12.3984 18.4075 12.4299 18.4161 12.4623C18.7068 12.2154 18.9324 11.9008 19.0731 11.5462C19.2137 11.1916 19.2651 10.8079 19.2227 10.4288C19.1802 10.0497 19.0453 9.68683 18.8298 9.3721C18.6142 9.05738 18.3246 8.80043 17.9865 8.62387L17.9722 8.61719C17.7913 8.52381 17.5986 8.45541 17.3994 8.41386L14.9174 7.88501L14.1079 8.78425L17.2419 9.45247C17.308 9.46602 17.3693 9.49683 17.4196 9.54177C17.4699 9.5867 17.5074 9.64417 17.5283 9.7083L18.3941 12.3726L18.3893 12.3669ZM13.2975 11.7445L14.2912 11.9554L15.1857 10.9617L14.7761 9.70353L13.5161 9.43529L12.6254 10.4243L13.0369 11.6891L13.2975 11.7445ZM11.0207 11.2605L12.1739 11.5058L11.8274 10.4529L11.1945 8.49309C11.1824 8.45479 11.1763 8.41487 11.1763 8.37472C11.1758 8.28092 11.2097 8.19019 11.2718 8.11984L13.1896 5.99202C13.2031 5.97597 13.2181 5.96127 13.2345 5.94811L13.2631 5.91947C12.7628 5.72369 12.2099 5.70816 11.6995 5.87556C11.5467 5.9252 11.1076 6.13521 10.3468 6.99818C10.3391 7.00677 10.3325 7.01536 10.3248 7.023L10.3134 7.03541L9.82269 7.57953L10.0747 8.38522L11.0207 11.2605ZM11.9897 8.46636L12.3524 9.58611L14.5003 7.20533C14.5451 7.15569 14.6023 7.11871 14.6659 7.0981C14.7296 7.07749 14.7976 7.07398 14.863 7.08791L17.6314 7.67404L17.7421 7.70172C17.6522 7.19135 17.3933 6.72603 17.0071 6.38055C16.6267 6.03754 16.1438 5.82964 15.6333 5.78907C15.1227 5.74851 14.6131 5.87757 14.1833 6.15622L13.7595 6.51037C13.753 6.51626 13.7469 6.52265 13.7414 6.52947L11.9897 8.46636Z" fill="#111111"/>
<path d="M46.6705 6.36364V18H45.0568L39.142 9.46591H39.0341V18H37.2784V6.36364H38.9034L44.8239 14.9091H44.9318V6.36364H46.6705ZM52.8565 18.1761C51.9967 18.1761 51.2562 17.9924 50.6349 17.625C50.0175 17.2538 49.5402 16.733 49.2031 16.0625C48.8698 15.3883 48.7031 14.5985 48.7031 13.6932C48.7031 12.7992 48.8698 12.0114 49.2031 11.3295C49.5402 10.6477 50.0099 10.1155 50.6122 9.73295C51.2183 9.35038 51.9266 9.15909 52.7372 9.15909C53.2296 9.15909 53.7069 9.24053 54.169 9.40341C54.6312 9.56629 55.0459 9.82197 55.4134 10.1705C55.7808 10.5189 56.0705 10.9716 56.2827 11.5284C56.4948 12.0814 56.6009 12.7538 56.6009 13.5455V14.1477H49.6634V12.875H54.9361C54.9361 12.428 54.8452 12.0322 54.6634 11.6875C54.4815 11.339 54.2259 11.0644 53.8963 10.8636C53.5705 10.6629 53.188 10.5625 52.7486 10.5625C52.2713 10.5625 51.8546 10.6799 51.4986 10.9148C51.1463 11.1458 50.8736 11.4489 50.6804 11.8239C50.491 12.1951 50.3963 12.5985 50.3963 13.0341V14.0284C50.3963 14.6117 50.4986 15.108 50.7031 15.517C50.9115 15.9261 51.2012 16.2386 51.5724 16.4545C51.9437 16.6667 52.3774 16.7727 52.8736 16.7727C53.1955 16.7727 53.4891 16.7273 53.7543 16.6364C54.0194 16.5417 54.2486 16.4015 54.4418 16.2159C54.6349 16.0303 54.7827 15.8011 54.8849 15.5284L56.4929 15.8182C56.3641 16.2917 56.133 16.7064 55.7997 17.0625C55.4702 17.4148 55.0554 17.6894 54.5554 17.8864C54.0592 18.0795 53.4929 18.1761 52.8565 18.1761ZM59.6236 9.27273L61.5497 12.6705L63.4929 9.27273H65.3509L62.6293 13.6364L65.3736 18H63.5156L61.5497 14.7386L59.5895 18H57.7259L60.4418 13.6364L57.7599 9.27273H59.6236ZM69.6193 18.1932C69.0663 18.1932 68.5663 18.0909 68.1193 17.8864C67.6723 17.678 67.3182 17.3769 67.0568 16.983C66.7992 16.589 66.6705 16.1061 66.6705 15.5341C66.6705 15.0417 66.7652 14.6364 66.9545 14.3182C67.1439 14 67.3996 13.7481 67.7216 13.5625C68.0436 13.3769 68.4034 13.2367 68.8011 13.142C69.1989 13.0473 69.6042 12.9754 70.017 12.9261C70.5398 12.8655 70.964 12.8163 71.2898 12.7784C71.6155 12.7367 71.8523 12.6705 72 12.5795C72.1477 12.4886 72.2216 12.3409 72.2216 12.1364V12.0966C72.2216 11.6004 72.0814 11.2159 71.8011 10.9432C71.5246 10.6705 71.1117 10.5341 70.5625 10.5341C69.9905 10.5341 69.5398 10.661 69.2102 10.9148C68.8845 11.1648 68.6591 11.4432 68.5341 11.75L66.9375 11.3864C67.1269 10.8561 67.4034 10.428 67.767 10.1023C68.1345 9.77273 68.5568 9.53409 69.0341 9.38636C69.5114 9.23485 70.0133 9.15909 70.5398 9.15909C70.8883 9.15909 71.2576 9.20076 71.6477 9.28409C72.0417 9.36364 72.4091 9.51136 72.75 9.72727C73.0947 9.94318 73.3769 10.2519 73.5966 10.6534C73.8163 11.0511 73.9261 11.5682 73.9261 12.2045V18H72.267V16.8068H72.1989C72.089 17.0265 71.9242 17.2424 71.7045 17.4545C71.4848 17.6667 71.2027 17.8428 70.858 17.983C70.5133 18.1231 70.1004 18.1932 69.6193 18.1932ZM69.9886 16.8295C70.4583 16.8295 70.8598 16.7367 71.1932 16.5511C71.5303 16.3655 71.786 16.1231 71.9602 15.8239C72.1383 15.5208 72.2273 15.197 72.2273 14.8523V13.7273C72.1667 13.7879 72.0492 13.8447 71.875 13.8977C71.7045 13.947 71.5095 13.9905 71.2898 14.0284C71.0701 14.0625 70.8561 14.0947 70.6477 14.125C70.4394 14.1515 70.2652 14.1742 70.125 14.1932C69.7955 14.2348 69.4943 14.3049 69.2216 14.4034C68.9527 14.5019 68.7367 14.6439 68.5739 14.8295C68.4148 15.0114 68.3352 15.2538 68.3352 15.5568C68.3352 15.9773 68.4905 16.2955 68.8011 16.5114C69.1117 16.7235 69.5076 16.8295 69.9886 16.8295ZM76.1889 18V9.27273H77.831V10.6591H77.9219C78.081 10.1894 78.3613 9.82008 78.7628 9.55114C79.1681 9.27841 79.6264 9.14205 80.1378 9.14205C80.2438 9.14205 80.3688 9.14583 80.5128 9.15341C80.6605 9.16098 80.776 9.17045 80.8594 9.18182V10.8068C80.7912 10.7879 80.67 10.767 80.4957 10.7443C80.3215 10.7178 80.1473 10.7045 79.973 10.7045C79.5715 10.7045 79.2135 10.7898 78.8991 10.9602C78.5885 11.1269 78.3423 11.3598 78.1605 11.6591C77.9787 11.9545 77.8878 12.2917 77.8878 12.6705V18H76.1889ZM84.7912 18.1932C84.2382 18.1932 83.7382 18.0909 83.2912 17.8864C82.8442 17.678 82.4901 17.3769 82.2287 16.983C81.9711 16.589 81.8423 16.1061 81.8423 15.5341C81.8423 15.0417 81.937 14.6364 82.1264 14.3182C82.3158 14 82.5715 13.7481 82.8935 13.5625C83.2154 13.3769 83.5753 13.2367 83.973 13.142C84.3707 13.0473 84.776 12.9754 85.1889 12.9261C85.7116 12.8655 86.1359 12.8163 86.4616 12.7784C86.7874 12.7367 87.0241 12.6705 87.1719 12.5795C87.3196 12.4886 87.3935 12.3409 87.3935 12.1364V12.0966C87.3935 11.6004 87.2533 11.2159 86.973 10.9432C86.6965 10.6705 86.2836 10.5341 85.7344 10.5341C85.1624 10.5341 84.7116 10.661 84.3821 10.9148C84.0563 11.1648 83.831 11.4432 83.706 11.75L82.1094 11.3864C82.2988 10.8561 82.5753 10.428 82.9389 10.1023C83.3063 9.77273 83.7287 9.53409 84.206 9.38636C84.6832 9.23485 85.1851 9.15909 85.7116 9.15909C86.0601 9.15909 86.4295 9.20076 86.8196 9.28409C87.2135 9.36364 87.581 9.51136 87.9219 9.72727C88.2666 9.94318 88.5488 10.2519 88.7685 10.6534C88.9882 11.0511 89.098 11.5682 89.098 12.2045V18H87.4389V16.8068H87.3707C87.2609 17.0265 87.0961 17.2424 86.8764 17.4545C86.6567 17.6667 86.3745 17.8428 86.0298 17.983C85.6851 18.1231 85.2723 18.1932 84.7912 18.1932ZM85.1605 16.8295C85.6302 16.8295 86.0317 16.7367 86.3651 16.5511C86.7022 16.3655 86.9579 16.1231 87.1321 15.8239C87.3101 15.5208 87.3991 15.197 87.3991 14.8523V13.7273C87.3385 13.7879 87.2211 13.8447 87.0469 13.8977C86.8764 13.947 86.6813 13.9905 86.4616 14.0284C86.242 14.0625 86.0279 14.0947 85.8196 14.125C85.6113 14.1515 85.437 14.1742 85.2969 14.1932C84.9673 14.2348 84.6662 14.3049 84.3935 14.4034C84.1245 14.5019 83.9086 14.6439 83.7457 14.8295C83.5866 15.0114 83.5071 15.2538 83.5071 15.5568C83.5071 15.9773 83.6624 16.2955 83.973 16.5114C84.2836 16.7235 84.6795 16.8295 85.1605 16.8295Z" fill="#FAFAFA"/>
</svg>
